<svg width="53" height="50" viewBox="0 0 53 50" fill="none" xmlns="http://www.w3.org/2000/svg">
<g filter="url(#filter0_d_105_47)">
<path fill-rule="evenodd" clip-rule="evenodd" d="M49 19.6902C49 30.5648 38.9256 39.3804 26.5 39.3804C24.2715 39.3834 22.0523 39.094 19.8991 38.5197C18.2566 39.3523 14.485 40.95 8.14 41.9908C7.5775 42.0808 7.15 41.4957 7.37219 40.9725C8.36781 38.6209 9.26781 35.4874 9.53781 32.6295C6.0925 29.1696 4 24.6409 4 19.6902C4 8.81559 14.0744 0 26.5 0C38.9256 0 49 8.81559 49 19.6902ZM18.0625 19.6902C18.0625 20.4362 17.7662 21.1517 17.2387 21.6792C16.7113 22.2067 15.9959 22.5031 15.25 22.5031C14.5041 22.5031 13.7887 22.2067 13.2613 21.6792C12.7338 21.1517 12.4375 20.4362 12.4375 19.6902C12.4375 18.9442 12.7338 18.2287 13.2613 17.7012C13.7887 17.1737 14.5041 16.8773 15.25 16.8773C15.9959 16.8773 16.7113 17.1737 17.2387 17.7012C17.7662 18.2287 18.0625 18.9442 18.0625 19.6902ZM29.3125 19.6902C29.3125 20.4362 29.0162 21.1517 28.4887 21.6792C27.9613 22.2067 27.2459 22.5031 26.5 22.5031C25.7541 22.5031 25.0387 22.2067 24.5113 21.6792C23.9838 21.1517 23.6875 20.4362 23.6875 19.6902C23.6875 18.9442 23.9838 18.2287 24.5113 17.7012C25.0387 17.1737 25.7541 16.8773 26.5 16.8773C27.2459 16.8773 27.9613 17.1737 28.4887 17.7012C29.0162 18.2287 29.3125 18.9442 29.3125 19.6902ZM37.75 22.5031C38.4959 22.5031 39.2113 22.2067 39.7387 21.6792C40.2662 21.1517 40.5625 20.4362 40.5625 19.6902C40.5625 18.9442 40.2662 18.2287 39.7387 17.7012C39.2113 17.1737 38.4959 16.8773 37.75 16.8773C37.0041 16.8773 36.2887 17.1737 35.7613 17.7012C35.2338 18.2287 34.9375 18.9442 34.9375 19.6902C34.9375 20.4362 35.2338 21.1517 35.7613 21.6792C36.2887 22.2067 37.0041 22.5031 37.75 22.5031Z" fill="white"/>
<path d="M26.5 38.8804H26.4993C24.3146 38.8834 22.1389 38.5996 20.0279 38.0366L19.8434 37.9873L19.673 38.0737C18.0765 38.883 14.3541 40.4647 8.05988 41.4972C7.98155 41.5094 7.91245 41.4795 7.8627 41.4127C7.81096 41.3433 7.79621 41.2532 7.83241 41.1679L7.83262 41.1674C8.84443 38.7776 9.75996 35.5941 10.0356 32.6765L10.0577 32.4429L9.89211 32.2767C6.52958 28.9 4.5 24.4944 4.5 19.6902C4.5 9.15231 14.2858 0.5 26.5 0.5C38.7142 0.5 48.5 9.15231 48.5 19.6902C48.5 30.2281 38.7142 38.8804 26.5 38.8804ZM17.5923 22.0327C18.2135 21.4115 18.5625 20.5688 18.5625 19.6902C18.5625 18.8116 18.2135 17.969 17.5923 17.3477C16.9711 16.7264 16.1286 16.3773 15.25 16.3773C14.3714 16.3773 13.5289 16.7264 12.9077 17.3477C12.2865 17.969 11.9375 18.8116 11.9375 19.6902C11.9375 20.5688 12.2865 21.4115 12.9077 22.0327C13.5289 22.654 14.3714 23.0031 15.25 23.0031C16.1286 23.0031 16.9711 22.654 17.5923 22.0327ZM28.8423 22.0327C29.4635 21.4115 29.8125 20.5688 29.8125 19.6902C29.8125 18.8116 29.4635 17.969 28.8423 17.3477C28.2211 16.7264 27.3786 16.3773 26.5 16.3773C25.6214 16.3773 24.7789 16.7264 24.1577 17.3477C23.5365 17.969 23.1875 18.8116 23.1875 19.6902C23.1875 20.5688 23.5365 21.4115 24.1577 22.0327C24.7789 22.654 25.6214 23.0031 26.5 23.0031C27.3786 23.0031 28.2211 22.654 28.8423 22.0327ZM37.75 23.0031C38.6286 23.0031 39.4711 22.654 40.0923 22.0327C40.7135 21.4115 41.0625 20.5688 41.0625 19.6902C41.0625 18.8116 40.7135 17.969 40.0923 17.3477C39.4711 16.7264 38.6286 16.3773 37.75 16.3773C36.8714 16.3773 36.0289 16.7264 35.4077 17.3477C34.7865 17.969 34.4375 18.8116 34.4375 19.6902C34.4375 20.5688 34.7865 21.4115 35.4077 22.0327C36.0289 22.654 36.8714 23.0031 37.75 23.0031Z" stroke="#6724FF"/>
</g>
<defs>
<filter id="filter0_d_105_47" x="0" y="0" width="53" height="50" filterUnits="userSpaceOnUse" color-interpolation-filters="sRGB">
<feFlood flood-opacity="0" result="BackgroundImageFix"/>
<feColorMatrix in="SourceAlpha" type="matrix" values="0 0 0 0 0 0 0 0 0 0 0 0 0 0 0 0 0 0 127 0" result="hardAlpha"/>
<feOffset dy="4"/>
<feGaussianBlur stdDeviation="2"/>
<feComposite in2="hardAlpha" operator="out"/>
<feColorMatrix type="matrix" values="0 0 0 0 0.403922 0 0 0 0 0.141176 0 0 0 0 1 0 0 0 0.25 0"/>
<feBlend mode="normal" in2="BackgroundImageFix" result="effect1_dropShadow_105_47"/>
<feBlend mode="normal" in="SourceGraphic" in2="effect1_dropShadow_105_47" result="shape"/>
</filter>
</defs>
</svg>
