<svg width="75" height="75" viewBox="0 0 75 75" fill="none" xmlns="http://www.w3.org/2000/svg">
<g clip-path="url(#clip0_105_43)">
<path fill-rule="evenodd" clip-rule="evenodd" d="M75 37.5C75 47.4456 71.0491 56.9839 64.0165 64.0165C56.9839 71.0491 47.4456 75 37.5 75C27.5544 75 18.0161 71.0491 10.9835 64.0165C3.95088 56.9839 0 47.4456 0 37.5C0 27.5544 3.95088 18.0161 10.9835 10.9835C18.0161 3.95088 27.5544 0 37.5 0C47.4456 0 56.9839 3.95088 64.0165 10.9835C71.0491 18.0161 75 27.5544 75 37.5ZM18.75 35.1562C18.1284 35.1562 17.5323 35.4032 17.0927 35.8427C16.6532 36.2823 16.4062 36.8784 16.4062 37.5C16.4062 38.1216 16.6532 38.7177 17.0927 39.1573C17.5323 39.5968 18.1284 39.8438 18.75 39.8438H56.25C56.8716 39.8438 57.4677 39.5968 57.9073 39.1573C58.3468 38.7177 58.5938 38.1216 58.5938 37.5C58.5938 36.8784 58.3468 36.2823 57.9073 35.8427C57.4677 35.4032 56.8716 35.1562 56.25 35.1562H18.75Z" fill="#FF9D9D"/>
</g>
<defs>
<clipPath id="clip0_105_43">
<rect width="75" height="75" fill="white"/>
</clipPath>
</defs>
</svg>
