<svg width="57" height="50" viewBox="0 0 57 50" fill="none" xmlns="http://www.w3.org/2000/svg">
<g filter="url(#filter0_d_105_45)">
<path d="M28.5 5.22717C30.9653 1.94296 34.9203 0 39.4375 0C43.0333 0.00405382 46.4806 1.43459 49.0232 3.97778C51.5657 6.52096 52.9959 9.9691 53 13.5657C53 28.8818 30.2959 41.2791 29.3291 41.7911C29.0742 41.9282 28.7894 42 28.5 42C28.2106 42 27.9258 41.9282 27.6709 41.7911C26.7041 41.2791 4 28.8818 4 13.5657C4.00405 9.9691 5.43426 6.52096 7.97684 3.97778C10.5194 1.43459 13.9667 0.00405382 17.5625 0C22.0797 0 26.0347 1.94296 28.5 5.22717Z" fill="white"/>
<path d="M28.1001 5.52734L28.5 6.06004L28.8999 5.52734C31.2642 2.37765 35.0663 0.500079 39.4372 0.5C42.9004 0.503981 46.2207 1.88182 48.6696 4.33129C51.1185 6.78083 52.4961 10.102 52.5 13.5663C52.4997 20.9902 46.9798 27.7889 41.1977 32.8538C35.4417 37.8958 29.5616 41.1022 29.0951 41.3492L29.0921 41.3508C28.9101 41.4487 28.7067 41.5 28.5 41.5C28.2933 41.5 28.0899 41.4487 27.9079 41.3508L27.9049 41.3492C27.4384 41.1022 21.5583 37.8958 15.8023 32.8538C10.0201 27.7888 4.50014 20.99 4.5 13.566C4.50398 10.1018 5.88154 6.78077 8.33044 4.33129C10.7793 1.88182 14.0996 0.503981 17.5628 0.5C21.9337 0.500078 25.7358 2.37765 28.1001 5.52734Z" stroke="#6724FF"/>
</g>
<defs>
<filter id="filter0_d_105_45" x="0" y="0" width="57" height="50" filterUnits="userSpaceOnUse" color-interpolation-filters="sRGB">
<feFlood flood-opacity="0" result="BackgroundImageFix"/>
<feColorMatrix in="SourceAlpha" type="matrix" values="0 0 0 0 0 0 0 0 0 0 0 0 0 0 0 0 0 0 127 0" result="hardAlpha"/>
<feOffset dy="4"/>
<feGaussianBlur stdDeviation="2"/>
<feComposite in2="hardAlpha" operator="out"/>
<feColorMatrix type="matrix" values="0 0 0 0 0.403922 0 0 0 0 0.141176 0 0 0 0 1 0 0 0 0.25 0"/>
<feBlend mode="normal" in2="BackgroundImageFix" result="effect1_dropShadow_105_45"/>
<feBlend mode="normal" in="SourceGraphic" in2="effect1_dropShadow_105_45" result="shape"/>
</filter>
</defs>
</svg>
