<svg width="75" height="75" viewBox="0 0 75 75" fill="none" xmlns="http://www.w3.org/2000/svg">
<path fill-rule="evenodd" clip-rule="evenodd" d="M75 37.5C75 47.4456 71.0491 56.9839 64.0165 64.0165C56.9839 71.0491 47.4456 75 37.5 75C27.5544 75 18.0161 71.0491 10.9835 64.0165C3.95088 56.9839 0 47.4456 0 37.5C0 27.5544 3.95088 18.0161 10.9835 10.9835C18.0161 3.95088 27.5544 0 37.5 0C47.4456 0 56.9839 3.95088 64.0165 10.9835C71.0491 18.0161 75 27.5544 75 37.5Z" fill="#85F77B"/>
<path d="M57.4891 21.6058C57.6511 21.7973 57.7796 22.0249 57.8672 22.2754C57.9549 22.5259 58 22.7945 58 23.0657C58 23.337 57.9549 23.6055 57.8672 23.856C57.7796 24.1066 57.6511 24.3341 57.4891 24.5256L33.1445 53.3942C32.983 53.5862 32.7911 53.7386 32.5799 53.8425C32.3686 53.9465 32.1421 54 31.9134 54C31.6847 54 31.4582 53.9465 31.2469 53.8425C31.0357 53.7386 30.8438 53.5862 30.6823 53.3942L18.51 38.9599C18.1834 38.5727 18 38.0476 18 37.5C18 36.9524 18.1834 36.4273 18.51 36.0401C18.8365 35.6529 19.2793 35.4354 19.7411 35.4354C20.2029 35.4354 20.6457 35.6529 20.9722 36.0401L31.9134 49.0186L55.0269 21.6058C55.1884 21.4138 55.3803 21.2614 55.5915 21.1575C55.8028 21.0535 56.0293 21 56.258 21C56.4867 21 56.7132 21.0535 56.9245 21.1575C57.1357 21.2614 57.3276 21.4138 57.4891 21.6058Z" fill="#F8F5FD"/>
<path d="M57.4891 21.6058C57.6511 21.7973 57.7796 22.0249 57.8672 22.2754C57.9549 22.5259 58 22.7945 58 23.0657C58 23.337 57.9549 23.6055 57.8672 23.856C57.7796 24.1066 57.6511 24.3341 57.4891 24.5256L33.1445 53.3942C32.983 53.5862 32.7911 53.7386 32.5799 53.8425C32.3686 53.9465 32.1421 54 31.9134 54C31.6847 54 31.4582 53.9465 31.2469 53.8425C31.0357 53.7386 30.8438 53.5862 30.6823 53.3942L18.51 38.9599C18.1834 38.5727 18 38.0476 18 37.5C18 36.9524 18.1834 36.4273 18.51 36.0401C18.8365 35.6529 19.2793 35.4354 19.7411 35.4354C20.2029 35.4354 20.6457 35.6529 20.9722 36.0401L31.9134 49.0186L55.0269 21.6058C55.1884 21.4138 55.3803 21.2614 55.5915 21.1575C55.8028 21.0535 56.0293 21 56.258 21C56.4867 21 56.7132 21.0535 56.9245 21.1575C57.1357 21.2614 57.3276 21.4138 57.4891 21.6058Z" stroke="white"/>
</svg>
