<svg width="63" height="51" viewBox="0 0 63 51" fill="none" xmlns="http://www.w3.org/2000/svg">
<path d="M42.6959 19.8872L32.2313 35.4436L25.9163 44.8315C23.9346 47.7774 19.5996 47.7771 17.6184 44.8307L10.9939 34.9792C4.72874 25.662 -1.56338 13.6836 5.81031 5.21645C5.95347 5.05206 6.0812 4.91114 6.18935 4.7949C6.44294 4.52233 6.70409 4.27034 7.00571 4.05211C8.88796 2.6903 16.9829 -1.6821 32.2313 9.62356L24.7616 19.1571" stroke="white" stroke-width="3" stroke-linecap="round"/>
<path d="M31.5133 36.2917L37.141 44.7666C39.1122 47.7351 43.4672 47.7477 45.4555 44.7908L52.3803 34.4925C58.4288 25.4976 64.2457 12.297 56.2452 4.98382V4.98382C55.5116 4.31328 55.7273 4.50332 54.8778 3.98754C51.8309 2.13768 43.291 -1.23669 32.211 9.62355" stroke="white" stroke-width="3"/>
</svg>
