<svg width="50" height="50" viewBox="0 0 50 50" fill="none" xmlns="http://www.w3.org/2000/svg">
<g filter="url(#filter0_d_105_46)">
<path fill-rule="evenodd" clip-rule="evenodd" d="M7.5 42C7.5 42 4 42 4 38.5C4 35 7.5 24.5 25 24.5C42.5 24.5 46 35 46 38.5C46 42 42.5 42 42.5 42H7.5ZM25 21C27.7848 21 30.4555 19.8938 32.4246 17.9246C34.3938 15.9555 35.5 13.2848 35.5 10.5C35.5 7.71523 34.3938 5.04451 32.4246 3.07538C30.4555 1.10625 27.7848 0 25 0C22.2152 0 19.5445 1.10625 17.5754 3.07538C15.6062 5.04451 14.5 7.71523 14.5 10.5C14.5 13.2848 15.6062 15.9555 17.5754 17.9246C19.5445 19.8938 22.2152 21 25 21Z" fill="white"/>
<path d="M42.5 41.5H42.4995H42.4992L42.4986 41.5H7.50133L7.50082 41.5H7.50045H7.5L7.49802 41.5L7.47735 41.4994C7.45761 41.4988 7.42635 41.4974 7.38523 41.4944C7.30282 41.4885 7.18183 41.4765 7.03532 41.4521C6.73995 41.4029 6.35375 41.3054 5.97361 41.1153C5.59542 40.9262 5.23245 40.6504 4.9629 40.2461C4.69544 39.8449 4.5 39.2875 4.5 38.5C4.5 36.8784 5.32527 33.5068 8.29105 30.5411C11.2422 27.5899 16.3554 25 25 25C33.6446 25 38.7578 27.5899 41.7089 30.5411C44.6747 33.5068 45.5 36.8784 45.5 38.5C45.5 39.2875 45.3046 39.8449 45.0371 40.2461C44.7676 40.6504 44.4046 40.9262 44.0264 41.1153C43.6463 41.3054 43.2601 41.4029 42.9647 41.4521C42.8182 41.4765 42.6972 41.4885 42.6148 41.4944C42.5736 41.4974 42.5424 41.4988 42.5226 41.4994L42.502 41.5L42.5 41.5ZM32.0711 17.5711C30.1957 19.4464 27.6522 20.5 25 20.5C22.3478 20.5 19.8043 19.4464 17.9289 17.5711C16.0536 15.6957 15 13.1522 15 10.5C15 7.84784 16.0536 5.3043 17.9289 3.42893C19.8043 1.55357 22.3478 0.5 25 0.5C27.6522 0.5 30.1957 1.55357 32.0711 3.42893C33.9464 5.3043 35 7.84784 35 10.5C35 13.1522 33.9464 15.6957 32.0711 17.5711Z" stroke="#6724FF"/>
</g>
<defs>
<filter id="filter0_d_105_46" x="0" y="0" width="50" height="50" filterUnits="userSpaceOnUse" color-interpolation-filters="sRGB">
<feFlood flood-opacity="0" result="BackgroundImageFix"/>
<feColorMatrix in="SourceAlpha" type="matrix" values="0 0 0 0 0 0 0 0 0 0 0 0 0 0 0 0 0 0 127 0" result="hardAlpha"/>
<feOffset dy="4"/>
<feGaussianBlur stdDeviation="2"/>
<feComposite in2="hardAlpha" operator="out"/>
<feColorMatrix type="matrix" values="0 0 0 0 0.403922 0 0 0 0 0.141176 0 0 0 0 1 0 0 0 0.25 0"/>
<feBlend mode="normal" in2="BackgroundImageFix" result="effect1_dropShadow_105_46"/>
<feBlend mode="normal" in="SourceGraphic" in2="effect1_dropShadow_105_46" result="shape"/>
</filter>
</defs>
</svg>
